<svg xmlns="http://www.w3.org/2000/svg" viewBox="0 0 340.46 57.89"><defs><style>.cls-1{fill:#2e3192;}</style></defs><title>TrainTide Logo Blue</title><g id="Layer_2" data-name="Layer 2"><g id="Layer_1-2" data-name="Layer 1"><path class="cls-1" d="M55.38,27.17H34.86a2.24,2.24,0,0,0-2.34,1.68L26,48.53a2,2,0,0,0-.12.6q0,1.08,1.26,1.08h1.32q1.32,0,1.32,1.14a1.9,1.9,0,0,1-.12.54L28.2,56.21a2.24,2.24,0,0,1-2.34,1.68H10.2q-1.32,0-1.32-1.14A1.9,1.9,0,0,1,9,56.21l9.12-27.36a5,5,0,0,0,.12-.54q0-1.14-1.26-1.14H1.32Q0,27.17,0,26a1.9,1.9,0,0,1,.12-.54l1.44-4.32A2.24,2.24,0,0,1,3.9,19.49h54q1.32,0,1.32,1.08a2.11,2.11,0,0,1-.06.6l-1.5,4.32A2.2,2.2,0,0,1,55.38,27.17Z"/><path class="cls-1" d="M71.47,35.39H38.76c-.65,0-1-.27-1-.8a1.4,1.4,0,0,1,.09-.4l1-3.24a1.65,1.65,0,0,1,1.72-1.24H83.93c.65,0,1,.28,1,.84a1.35,1.35,0,0,1-.09.39L81.47,41a7.66,7.66,0,0,1-3.61,4.1,10.42,10.42,0,0,1-5.33,1.54H63.28c-.44,0-.66.08-.66.26s.13.31.4.49l13.47,9.77c.26.18.4.34.4.48s-.21.27-.62.27H64.78a3.9,3.9,0,0,1-2.38-.75L48.84,47.37a.92.92,0,0,0-1.5.48l-2.9,8.81a1.65,1.65,0,0,1-1.72,1.23h-8c-.65,0-1-.28-1-.84a1.29,1.29,0,0,1,.09-.39l4.84-14.45A1.62,1.62,0,0,1,40.39,41H69.58a1.63,1.63,0,0,0,1.71-1.22l1.06-3.15a3.36,3.36,0,0,0,.09-.39C72.44,35.67,72.12,35.39,71.47,35.39Z"/><path class="cls-1" d="M123.47,57.89h-8q-.93,0-.93-.84a3.36,3.36,0,0,1,.09-.39l2.95-8.81a1.59,1.59,0,0,0,0-.44c0-.53-.32-.79-1-.79h-13a2.83,2.83,0,0,0-2.21.92l-9,9.42a3,3,0,0,1-2.2.93h-8c-.47,0-.71-.13-.71-.4a.86.86,0,0,1,.31-.52l19.77-20.66a.81.81,0,0,0,.31-.53q0-.39-.75-.39H91.55c-.65,0-1-.28-1-.84a1.34,1.34,0,0,1,.09-.4l1-3.2a1.65,1.65,0,0,1,1.72-1.24h33.73a6.47,6.47,0,0,1,3.61,1,3.56,3.56,0,0,1,1.76,3.21,4.21,4.21,0,0,1-.22,1.45l-7.13,21.32A1.65,1.65,0,0,1,123.47,57.89ZM109.07,41h9.51a1.63,1.63,0,0,0,1.68-1.22l1-3.15a3.36,3.36,0,0,0,.09-.39c0-.55-.32-.83-1-.83h-6a2.85,2.85,0,0,0-2.2.92l-3.56,3.75c-.24.24-.36.41-.36.53S108.57,41,109.07,41Z"/><path class="cls-1" d="M144.56,52.25h1c.62,0,.92.28.92.84a1.64,1.64,0,0,1,0,.4l-1.06,3.17a1.63,1.63,0,0,1-1.71,1.23h-11.5q-1,0-1-.84a2.41,2.41,0,0,1,.08-.39L138,36.58c0-.24.08-.37.08-.4q0-.84-1-.84h-.93c-.65,0-1-.26-1-.79a1.48,1.48,0,0,1,.09-.44l1.06-3.17A1.61,1.61,0,0,1,138,29.71h11.58c.62,0,.92.26.92.79a1.65,1.65,0,0,1-.08.44L143.68,51a1.54,1.54,0,0,0,0,.44C143.64,52,143.94,52.25,144.56,52.25Z"/><path class="cls-1" d="M150.9,52.25l7.18-21.31a1.61,1.61,0,0,1,1.67-1.23h8a4.67,4.67,0,0,1,2.38.66L187,40.63a1.21,1.21,0,0,0,.62.17.93.93,0,0,0,.92-.74l3-9.12a1.64,1.64,0,0,1,1.72-1.23h8c.64,0,1,.26,1,.79a1.37,1.37,0,0,1-.09.44l-6.26,18.67a1.63,1.63,0,0,1-1.71,1.23h-8a4.54,4.54,0,0,1-2.38-.66L167,40a1.17,1.17,0,0,0-.62-.22,1,1,0,0,0-.92.75L161.91,51a1.4,1.4,0,0,0-.09.4c0,.55.32.83,1,.83h30.86c.65,0,1,.28,1,.84a1.36,1.36,0,0,1,0,.4l-1.1,3.17a1.62,1.62,0,0,1-1.68,1.23H156.1a6.57,6.57,0,0,1-3.66-1,3.57,3.57,0,0,1-1.76-3.21A4.27,4.27,0,0,1,150.9,52.25Z"/><path class="cls-1" d="M251,20.57a2.11,2.11,0,0,1-.06.6l-1.5,4.32a2.2,2.2,0,0,1-2.28,1.68H226.59a2.24,2.24,0,0,0-2.34,1.68l-6.54,19.68a2,2,0,0,0-.12.6q0,1.08,1.26,1.08h1.32q1.32,0,1.32,1.14a1.9,1.9,0,0,1-.12.54l-1.44,4.32a2.45,2.45,0,0,1-.48.89,23.45,23.45,0,0,1-3.51-1,21,21,0,0,0-12.11-.37c-1.48.34-3.51.59-2.83,1.78a1.24,1.24,0,0,0,.17.23,1,1,0,0,1-.56-1,1.9,1.9,0,0,1,.12-.54l9.12-27.36a5,5,0,0,0,.12-.54q0-1.14-1.26-1.14H193.05q-1.32,0-1.32-1.14a1.9,1.9,0,0,1,.12-.54l1.44-4.32a2.24,2.24,0,0,1,2.34-1.68h54Q251,19.49,251,20.57Z"/><path class="cls-1" d="M237.34,51a1.54,1.54,0,0,0,0,.44c0,.53.3.79.92.79h1c.62,0,.92.28.92.84a1.64,1.64,0,0,1,0,.4l-.56,1.67a16.72,16.72,0,0,0-7.14.94A24.64,24.64,0,0,1,225,57.58a.86.86,0,0,1-.15-.53,2.41,2.41,0,0,1,.08-.39l6.7-20.08c0-.24.08-.37.08-.4q0-.84-1-.84h-.93c-.64,0-1-.26-1-.79a1.48,1.48,0,0,1,.09-.44L230,30.94a1.61,1.61,0,0,1,1.67-1.23h11.58c.62,0,.92.26.92.79a1.33,1.33,0,0,1-.08.44Z"/><path class="cls-1" d="M295.64,33.89a4.47,4.47,0,0,1-.22,1.45l-5.68,16.91a7.62,7.62,0,0,1-3.62,4.14,11.63,11.63,0,0,1-1.41.71h0a23.9,23.9,0,0,1-13.11-1.05,16.57,16.57,0,0,0-11.2,0,23.48,23.48,0,0,1-15.84.24l1-2.84a1.63,1.63,0,0,1,1.71-1.24h.88A1.64,1.64,0,0,0,249.8,51l4.36-13a1.65,1.65,0,0,1,1.72-1.24h8c.61,0,.92.28.92.84a1.12,1.12,0,0,1,0,.4l-4.36,13a1.43,1.43,0,0,0-.09.44c0,.53.32.79,1,.79h16.6a1.62,1.62,0,0,0,1.71-1.19l4.85-14.48a3.79,3.79,0,0,0,.09-.4c0-.56-.33-.84-1-.84H252.84c-.65,0-1-.26-1-.79a1.48,1.48,0,0,1,.09-.44l1-3.17a1.65,1.65,0,0,1,1.72-1.23h35.49a6.51,6.51,0,0,1,3.65,1A3.54,3.54,0,0,1,295.64,33.89Z"/><path class="cls-1" d="M340.46,30.5a1.43,1.43,0,0,1,0,.43l-1.49,4.37H312.06a1.65,1.65,0,0,0-1.72,1.25l-1.06,3.22a1.44,1.44,0,0,0,0,.41c0,.56.31.84.92.84h22.06c.65,0,1,.28,1,.83a1.36,1.36,0,0,1,0,.4l-1.1,3.14a1.62,1.62,0,0,1-1.68,1.23h-22.1a1.61,1.61,0,0,0-1.67,1.24l-1.1,3.24a1,1,0,0,0-.05.4c0,.53.31.8.93.8H332c.64,0,1,.27,1,.83a1.43,1.43,0,0,1-.09.39l-1.06,3.14a1.56,1.56,0,0,1-1.08,1.14,1.94,1.94,0,0,0,.43-.51c-.09-.65-.79-1-1.88-1.31-4.16-1-8.34-1.54-12.5,0a24.23,24.23,0,0,1-17.17.12,16.17,16.17,0,0,0-5.07-1h0a4.09,4.09,0,0,1-.23-1.39,4.27,4.27,0,0,1,.22-1.46l5.28-15.7a3.79,3.79,0,0,0,.09-.4c0-.56-.32-.84-1-.84h-1c-.61,0-.92-.26-.92-.79a1.37,1.37,0,0,1,.09-.43l1.05-3.15a1.65,1.65,0,0,1,1.72-1.22h39.67C340.15,29.71,340.46,30,340.46,30.5Z"/><path class="cls-1" d="M35.4,11.23A5.66,5.66,0,0,1,32,16.34a5.38,5.38,0,0,1-6-.71,5.34,5.34,0,0,1-1.94-6.07,22.52,22.52,0,0,1,2.07-4.39c.93-1.66,2-3.23,3.05-4.85.24-.37.47-.46.74,0,1.3,2.07,2.63,4.13,3.9,6.23A9.67,9.67,0,0,1,35.4,11.23Z"/><path class="cls-1" d="M227.13,11.23a5.65,5.65,0,0,1-3.36,5.11,5.39,5.39,0,0,1-6-.71,5.34,5.34,0,0,1-1.94-6.07,23.12,23.12,0,0,1,2.07-4.39c.94-1.66,2-3.23,3.05-4.85.24-.37.48-.46.74,0,1.31,2.07,2.64,4.13,3.9,6.23A9.67,9.67,0,0,1,227.13,11.23Z"/></g></g></svg>