<svg xmlns="http://www.w3.org/2000/svg" viewBox="0 0 71.5 50.1"><defs><style>.cls-1{stroke:#fff;stroke-miterlimit:10;stroke-width:2px;}</style></defs><title>TrainTide Icon</title><g id="Layer_2" data-name="Layer 2"><g id="Layer_1-2" data-name="Layer 1"><path class="cls-1" d="M56.38,8.68H35.86a2.24,2.24,0,0,0-2.34,1.68L27,30a2,2,0,0,0-.12.6q0,1.08,1.26,1.08h1.32q1.32,0,1.32,1.14a1.9,1.9,0,0,1-.12.54L29.2,37.72a2.24,2.24,0,0,1-2.34,1.68H11.2q-1.32,0-1.32-1.14a1.9,1.9,0,0,1,.12-.54l9.12-27.36a5,5,0,0,0,.12-.54q0-1.14-1.26-1.14H2.32Q1,8.68,1,7.54A1.9,1.9,0,0,1,1.12,7L2.56,2.68A2.24,2.24,0,0,1,4.9,1h54q1.32,0,1.32,1.08a2.11,2.11,0,0,1-.06.6L58.66,7A2.2,2.2,0,0,1,56.38,8.68Z"/><path class="cls-1" d="M66.66,18.38H46.14a2.24,2.24,0,0,0-2.34,1.68L37.26,39.74a1.71,1.71,0,0,0-.12.6q0,1.08,1.26,1.08h1.32c.87,0,1.32.38,1.32,1.14a1.9,1.9,0,0,1-.12.54l-1.44,4.32a2.24,2.24,0,0,1-2.34,1.68H21.48q-1.32,0-1.32-1.14a1.61,1.61,0,0,1,.12-.54L29.4,20.06a5,5,0,0,0,.12-.54q0-1.14-1.26-1.14H12.6c-.89,0-1.32-.38-1.32-1.14a1.61,1.61,0,0,1,.12-.54l1.44-4.32a2.24,2.24,0,0,1,2.34-1.68h54c.87,0,1.32.36,1.32,1.08a2.56,2.56,0,0,1-.06.6l-1.5,4.32A2.21,2.21,0,0,1,66.66,18.38Z"/></g></g></svg>